<?xml version="1.0" standalone="no"?>
<svg version="1.0" xmlns="http://www.w3.org/2000/svg"
 width="1920.000000pt" height="1080.000000pt" viewBox="0 0 1920.000000 1080.000000"
 preserveAspectRatio="xMidYMid meet">

<g transform="translate(0.000000,1080.000000) scale(0.100000,-0.100000)"
fill="#09a0bf" stroke="none">
<path d="M0 5400 l0 -5400 9600 0 9600 0 0 5400 0 5400 -9600 0 -9600 0 0
-5400z m5565 2891 c411 -62 688 -187 918 -415 76 -77 197 -227 197 -247 0 -27
-763 -2356 -776 -2365 -15 -12 -181 -47 -309 -65 -46 -6 -298 -13 -587 -16
l-508 -5 0 -814 0 -814 -602 2 -603 3 -3 2365 c-1 1301 0 2371 3 2378 7 18
2148 12 2270 -7z m9454 -2371 c488 -1295 885 -2358 881 -2363 -3 -4 -301 -6
-660 -5 l-655 3 -151 420 -150 420 -852 3 c-672 2 -852 5 -852 15 0 6 81 215
179 462 l178 450 525 5 526 5 -249 695 -248 695 312 789 c207 524 315 784 320
775 5 -8 408 -1074 896 -2369z"/>
<path d="M4500 6745 l0 -635 278 0 c370 0 491 16 632 82 84 40 174 130 217
219 55 111 68 176 67 344 0 138 -2 156 -27 230 -54 152 -147 259 -277 319
-134 61 -254 76 -612 76 l-278 0 0 -635z"/>
</g>
</svg>
